<svg width="57" height="14" viewBox="0 0 57 14" fill="none" xmlns="http://www.w3.org/2000/svg">
<path d="M7.88867 1.69564V4.00102H3.07598V6.4915H6.67708V8.72957H3.07598V13.5086H0.198462V1.69564H7.88867ZM13.6753 13.6432C12.7553 13.6432 11.9252 13.4469 11.1848 13.0543C10.4556 12.6616 9.87783 12.1007 9.45153 11.3715C9.03645 10.6423 8.82891 9.78971 8.82891 8.81371C8.82891 7.84893 9.04206 7.00194 9.46836 6.27274C9.89466 5.53233 10.478 4.9658 11.2184 4.57316C11.9588 4.18051 12.789 3.98419 13.7089 3.98419C14.6288 3.98419 15.459 4.18051 16.1994 4.57316C16.9398 4.9658 17.5232 5.53233 17.9495 6.27274C18.3758 7.00194 18.5889 7.84893 18.5889 8.81371C18.5889 9.77849 18.3702 10.6311 17.9326 11.3715C17.5063 12.1007 16.9174 12.6616 16.1657 13.0543C15.4253 13.4469 14.5952 13.6432 13.6753 13.6432ZM13.6753 11.1527C14.225 11.1527 14.6905 10.9508 15.0719 10.547C15.4646 10.1431 15.6609 9.56534 15.6609 8.81371C15.6609 8.06208 15.4702 7.48433 15.0888 7.08047C14.7186 6.67661 14.2586 6.47468 13.7089 6.47468C13.148 6.47468 12.6824 6.67661 12.3122 7.08047C11.942 7.47311 11.7569 8.05086 11.7569 8.81371C11.7569 9.56534 11.9364 10.1431 12.2954 10.547C12.6656 10.9508 13.1256 11.1527 13.6753 11.1527ZM24.3897 13.6432C23.4698 13.6432 22.6396 13.4469 21.8992 13.0543C21.17 12.6616 20.5923 12.1007 20.166 11.3715C19.7509 10.6423 19.5433 9.78971 19.5433 8.81371C19.5433 7.84893 19.7565 7.00194 20.1828 6.27274C20.6091 5.53233 21.1925 4.9658 21.9329 4.57316C22.6733 4.18051 23.5034 3.98419 24.4233 3.98419C25.3433 3.98419 26.1734 4.18051 26.9138 4.57316C27.6542 4.9658 28.2376 5.53233 28.6639 6.27274C29.0902 7.00194 29.3033 7.84893 29.3033 8.81371C29.3033 9.77849 29.0846 10.6311 28.6471 11.3715C28.2208 12.1007 27.6318 12.6616 26.8802 13.0543C26.1398 13.4469 25.3096 13.6432 24.3897 13.6432ZM24.3897 11.1527C24.9394 11.1527 25.405 10.9508 25.7864 10.547C26.179 10.1431 26.3753 9.56534 26.3753 8.81371C26.3753 8.06208 26.1846 7.48433 25.8032 7.08047C25.433 6.67661 24.973 6.47468 24.4233 6.47468C23.8624 6.47468 23.3969 6.67661 23.0267 7.08047C22.6565 7.47311 22.4713 8.05086 22.4713 8.81371C22.4713 9.56534 22.6508 10.1431 23.0098 10.547C23.38 10.9508 23.84 11.1527 24.3897 11.1527ZM30.2578 8.79688C30.2578 7.8321 30.4373 6.98511 30.7963 6.25592C31.1665 5.52672 31.6657 4.9658 32.2939 4.57316C32.9222 4.18051 33.6233 3.98419 34.3974 3.98419C35.0144 3.98419 35.5753 4.1132 36.0801 4.37123C36.5962 4.62925 37 4.97702 37.2917 5.41454V1.05619H40.1692V13.5086H37.2917V12.1624C37.0225 12.6111 36.6354 12.9701 36.1306 13.2394C35.637 13.5086 35.0593 13.6432 34.3974 13.6432C33.6233 13.6432 32.9222 13.4469 32.2939 13.0543C31.6657 12.6504 31.1665 12.0839 30.7963 11.3547C30.4373 10.6143 30.2578 9.76166 30.2578 8.79688ZM37.2917 8.81371C37.2917 8.09573 37.0898 7.5292 36.6859 7.11412C36.2933 6.69904 35.8109 6.4915 35.2388 6.4915C34.6666 6.4915 34.1786 6.69904 33.7748 7.11412C33.3821 7.51799 33.1858 8.0789 33.1858 8.79688C33.1858 9.51486 33.3821 10.087 33.7748 10.5133C34.1786 10.9284 34.6666 11.1359 35.2388 11.1359C35.8109 11.1359 36.2933 10.9284 36.6859 10.5133C37.0898 10.0982 37.2917 9.53169 37.2917 8.81371ZM43.6982 3.14281C43.1933 3.14281 42.7783 2.99697 42.4529 2.7053C42.1388 2.4024 41.9817 2.03219 41.9817 1.59468C41.9817 1.14594 42.1388 0.775733 42.4529 0.484054C42.7783 0.181158 43.1933 0.0297092 43.6982 0.0297092C44.1918 0.0297092 44.5956 0.181158 44.9097 0.484054C45.2351 0.775733 45.3977 1.14594 45.3977 1.59468C45.3977 2.03219 45.2351 2.4024 44.9097 2.7053C44.5956 2.99697 44.1918 3.14281 43.6982 3.14281ZM45.1285 4.11881V13.5086H42.251V4.11881H45.1285ZM56.0651 8.66226C56.0651 8.9315 56.0483 9.21196 56.0146 9.50364H49.5024C49.5472 10.087 49.7323 10.5357 50.0577 10.8498C50.3942 11.1527 50.8037 11.3042 51.2861 11.3042C52.0041 11.3042 52.5033 11.0013 52.7837 10.3955H55.8464C55.6893 11.0125 55.4032 11.5678 54.9882 12.0614C54.5843 12.555 54.0739 12.9421 53.4569 13.2225C52.8398 13.503 52.1499 13.6432 51.3871 13.6432C50.4671 13.6432 49.6482 13.4469 48.9302 13.0543C48.2123 12.6616 47.6513 12.1007 47.2475 11.3715C46.8436 10.6423 46.6417 9.78971 46.6417 8.81371C46.6417 7.83771 46.838 6.98511 47.2306 6.25592C47.6345 5.52672 48.1954 4.9658 48.9134 4.57316C49.6314 4.18051 50.4559 3.98419 51.3871 3.98419C52.2957 3.98419 53.1035 4.1749 53.8102 4.55633C54.517 4.93776 55.0667 5.48185 55.4593 6.18861C55.8632 6.89536 56.0651 7.71992 56.0651 8.66226ZM53.1203 7.90502C53.1203 7.41141 52.952 7.01877 52.6155 6.72709C52.2789 6.43541 51.8582 6.28957 51.3534 6.28957C50.871 6.28957 50.4615 6.4298 50.125 6.71026C49.7997 6.99072 49.5977 7.38897 49.5192 7.90502H53.1203Z" fill="#D42201"/>
</svg>
